<svg width="1585" height="294" viewBox="0 0 1585 294" fill="none" xmlns="http://www.w3.org/2000/svg">
<path d="M15.8926 233V67.9978H42.0686L107.041 169.196H93.7194L158.458 67.9978H184.868V233H148.175V129.932L154.719 131.568L112.417 197.475H88.1102L46.0417 131.568L52.352 129.932V233H15.8926ZM269.332 235.571C257.023 235.571 246.038 233.078 236.378 228.092C226.874 222.95 219.395 215.861 213.942 206.824C208.488 197.787 205.762 187.582 205.762 176.207C205.762 164.833 208.41 154.706 213.708 145.825C219.161 136.788 226.484 129.698 235.677 124.557C244.87 119.415 255.231 116.844 266.761 116.844C277.979 116.844 287.873 119.259 296.443 124.089C305.012 128.919 311.712 135.619 316.542 144.189C321.528 152.758 324.021 162.574 324.021 173.637C324.021 175.662 323.865 177.843 323.554 180.181C323.398 182.362 323.008 184.933 322.385 187.893L224.459 188.127V163.587L307.194 163.353L291.768 173.637C291.613 167.093 290.6 161.717 288.73 157.51C286.86 153.148 284.056 149.876 280.316 147.694C276.733 145.357 272.292 144.189 266.995 144.189C261.386 144.189 256.478 145.513 252.271 148.162C248.22 150.655 245.026 154.238 242.688 158.913C240.507 163.587 239.416 169.274 239.416 175.974C239.416 182.674 240.585 188.438 242.922 193.269C245.415 197.943 248.843 201.604 253.206 204.253C257.724 206.746 263.022 207.993 269.098 207.993C274.707 207.993 279.771 207.058 284.29 205.188C288.808 203.162 292.781 200.202 296.209 196.307L315.841 215.939C310.232 222.483 303.454 227.391 295.508 230.663C287.562 233.935 278.836 235.571 269.332 235.571ZM354.897 233V72.4384H390.655V233H354.897ZM329.188 149.798V119.415H416.364V149.798H329.188ZM432.119 233V119.415H467.877V233H432.119ZM467.877 170.598L452.92 158.913C455.88 145.669 460.866 135.385 467.877 128.062C474.889 120.739 484.627 117.078 497.092 117.078C502.545 117.078 507.297 117.935 511.348 119.649C515.555 121.207 519.217 123.7 522.333 127.127L501.065 154.005C499.507 152.291 497.559 150.966 495.222 150.031C492.885 149.097 490.236 148.629 487.276 148.629C481.355 148.629 476.603 150.499 473.019 154.238C469.591 157.822 467.877 163.275 467.877 170.598ZM531.859 233V119.415H567.617V233H531.859ZM549.855 103.756C544.245 103.756 539.571 101.886 535.832 98.1469C532.248 94.2517 530.456 89.5774 530.456 84.1241C530.456 78.5149 532.248 73.8406 535.832 70.1012C539.571 66.3618 544.245 64.4921 549.855 64.4921C555.464 64.4921 560.06 66.3618 563.644 70.1012C567.227 73.8406 569.019 78.5149 569.019 84.1241C569.019 89.5774 567.227 94.2517 563.644 98.1469C560.06 101.886 555.464 103.756 549.855 103.756ZM607.288 233V109.599C607.288 100.406 609.314 92.1483 613.365 84.8252C617.571 77.3464 623.414 71.5035 630.893 67.2966C638.372 62.934 647.253 60.7526 657.537 60.7526C665.327 60.7526 672.105 62.077 677.87 64.7258C683.79 67.2187 688.932 70.7245 693.295 75.2429L670.858 97.6795C669.3 96.1214 667.508 94.9528 665.483 94.1738C663.613 93.2389 661.354 92.7715 658.705 92.7715C653.875 92.7715 650.058 94.1738 647.253 96.9783C644.449 99.7829 643.046 103.6 643.046 108.43V233H607.288ZM582.281 149.798V119.415H675.766V149.798H582.281ZM791.917 235.571C778.361 235.571 766.676 233.39 756.86 229.027C747.199 224.508 738.318 217.731 730.216 208.694L754.055 185.089C759.353 191.165 765.195 195.917 771.584 199.345C778.128 202.617 785.684 204.253 794.254 204.253C802.044 204.253 808.043 202.851 812.25 200.046C816.613 197.242 818.794 193.346 818.794 188.361C818.794 183.842 817.392 180.181 814.587 177.376C811.782 174.571 808.043 172.156 803.369 170.131C798.85 168.105 793.786 166.158 788.177 164.288C782.724 162.418 777.271 160.315 771.817 157.978C766.364 155.485 761.3 152.447 756.626 148.863C752.107 145.123 748.446 140.527 745.641 135.074C742.837 129.465 741.434 122.453 741.434 114.039C741.434 103.912 743.85 95.1865 748.68 87.8635C753.665 80.5404 760.521 75.0092 769.246 71.2698C777.972 67.3746 788.021 65.4269 799.396 65.4269C810.925 65.4269 821.443 67.4525 830.947 71.5035C840.607 75.5545 848.553 81.0858 854.786 88.0972L830.947 111.702C825.961 106.561 820.897 102.743 815.756 100.25C810.77 97.7574 805.083 96.5109 798.694 96.5109C792.306 96.5109 787.242 97.7574 783.503 100.25C779.764 102.587 777.894 106.015 777.894 110.534C777.894 114.741 779.296 118.168 782.101 120.817C784.905 123.31 788.567 125.491 793.085 127.361C797.76 129.231 802.823 131.101 808.277 132.97C813.886 134.84 819.417 137.021 824.87 139.514C830.324 142.007 835.31 145.201 839.828 149.097C844.502 152.836 848.242 157.666 851.046 163.587C853.851 169.352 855.253 176.519 855.253 185.089C855.253 200.825 849.644 213.212 838.426 222.249C827.208 231.13 811.705 235.571 791.917 235.571ZM929.593 235.571C917.907 235.571 907.312 233 897.808 227.858C888.303 222.717 880.824 215.627 875.371 206.59C869.918 197.553 867.191 187.426 867.191 176.207C867.191 164.833 869.918 154.706 875.371 145.825C880.98 136.788 888.537 129.698 898.041 124.557C907.546 119.415 918.219 116.844 930.06 116.844C938.941 116.844 947.043 118.402 954.366 121.518C961.845 124.479 968.467 128.997 974.232 135.074L951.328 157.978C948.679 155.017 945.563 152.836 941.98 151.434C938.552 150.031 934.579 149.33 930.06 149.33C924.918 149.33 920.322 150.499 916.271 152.836C912.376 155.017 909.26 158.134 906.922 162.185C904.741 166.08 903.65 170.676 903.65 175.974C903.65 181.271 904.741 185.946 906.922 189.997C909.26 194.048 912.454 197.242 916.505 199.579C920.556 201.916 925.074 203.085 930.06 203.085C934.734 203.085 938.863 202.306 942.447 200.747C946.186 199.034 949.38 196.696 952.029 193.736L974.699 216.64C968.779 222.872 962.079 227.625 954.6 230.897C947.121 234.013 938.785 235.571 929.593 235.571ZM990.614 233V119.415H1026.37V233H990.614ZM1026.37 170.598L1011.41 158.913C1014.37 145.669 1019.36 135.385 1026.37 128.062C1033.38 120.739 1043.12 117.078 1055.59 117.078C1061.04 117.078 1065.79 117.935 1069.84 119.649C1074.05 121.207 1077.71 123.7 1080.83 127.127L1059.56 154.005C1058 152.291 1056.05 150.966 1053.72 150.031C1051.38 149.097 1048.73 148.629 1045.77 148.629C1039.85 148.629 1035.1 150.499 1031.51 154.238C1028.09 157.822 1026.37 163.275 1026.37 170.598ZM1134.6 235.337C1124.16 235.337 1114.81 232.766 1106.56 227.625C1098.45 222.483 1091.99 215.471 1087.16 206.59C1082.48 197.709 1080.15 187.582 1080.15 176.207C1080.15 164.833 1082.48 154.706 1087.16 145.825C1091.99 136.943 1098.45 129.932 1106.56 124.79C1114.81 119.649 1124.16 117.078 1134.6 117.078C1142.24 117.078 1149.09 118.558 1155.17 121.518C1161.4 124.479 1166.46 128.608 1170.36 133.905C1174.26 139.047 1176.44 144.968 1176.9 151.667V200.747C1176.44 207.447 1174.26 213.446 1170.36 218.743C1166.62 223.885 1161.63 227.936 1155.4 230.897C1149.17 233.857 1142.24 235.337 1134.6 235.337ZM1141.85 203.085C1149.48 203.085 1155.64 200.592 1160.31 195.606C1164.98 190.464 1167.32 183.998 1167.32 176.207C1167.32 170.91 1166.23 166.236 1164.05 162.185C1162.02 158.134 1159.06 155.017 1155.17 152.836C1151.43 150.499 1147.07 149.33 1142.08 149.33C1137.09 149.33 1132.65 150.499 1128.76 152.836C1125.02 155.017 1121.98 158.134 1119.64 162.185C1117.46 166.236 1116.37 170.91 1116.37 176.207C1116.37 181.349 1117.46 185.946 1119.64 189.997C1121.83 194.048 1124.86 197.242 1128.76 199.579C1132.65 201.916 1137.02 203.085 1141.85 203.085ZM1165.92 233V202.383L1171.3 174.805L1165.92 147.227V119.415H1200.98V233H1165.92ZM1291.59 235.337C1283.96 235.337 1276.95 233.857 1270.56 230.897C1264.17 227.936 1258.95 223.885 1254.9 218.743C1250.85 213.446 1248.51 207.447 1247.89 200.747V152.836C1248.51 146.136 1250.85 140.06 1254.9 134.606C1258.95 129.153 1264.17 124.868 1270.56 121.752C1276.95 118.636 1283.96 117.078 1291.59 117.078C1302.34 117.078 1311.85 119.649 1320.11 124.79C1328.52 129.932 1335.06 136.943 1339.74 145.825C1344.57 154.706 1346.98 164.833 1346.98 176.207C1346.98 187.582 1344.57 197.709 1339.74 206.59C1335.06 215.471 1328.52 222.483 1320.11 227.625C1311.85 232.766 1302.34 235.337 1291.59 235.337ZM1226.15 280.911V119.415H1261.91V148.629L1256.07 176.207L1261.44 203.786V280.911H1226.15ZM1285.05 203.085C1290.19 203.085 1294.63 201.916 1298.37 199.579C1302.27 197.242 1305.31 194.048 1307.49 189.997C1309.67 185.946 1310.76 181.349 1310.76 176.207C1310.76 170.91 1309.67 166.236 1307.49 162.185C1305.31 158.134 1302.27 155.017 1298.37 152.836C1294.63 150.499 1290.27 149.33 1285.28 149.33C1280.3 149.33 1275.86 150.499 1271.96 152.836C1268.22 155.017 1265.26 158.134 1263.08 162.185C1260.9 166.236 1259.81 170.91 1259.81 176.207C1259.81 181.349 1260.82 185.946 1262.85 189.997C1265.03 194.048 1268.07 197.242 1271.96 199.579C1275.86 201.916 1280.22 203.085 1285.05 203.085ZM1421.24 235.571C1408.93 235.571 1397.95 233.078 1388.29 228.092C1378.78 222.95 1371.3 215.861 1365.85 206.824C1360.4 197.787 1357.67 187.582 1357.67 176.207C1357.67 164.833 1360.32 154.706 1365.62 145.825C1371.07 136.788 1378.39 129.698 1387.59 124.557C1396.78 119.415 1407.14 116.844 1418.67 116.844C1429.89 116.844 1439.78 119.259 1448.35 124.089C1456.92 128.919 1463.62 135.619 1468.45 144.189C1473.44 152.758 1475.93 162.574 1475.93 173.637C1475.93 175.662 1475.77 177.843 1475.46 180.181C1475.31 182.362 1474.92 184.933 1474.29 187.893L1376.37 188.127V163.587L1459.1 163.353L1443.68 173.637C1443.52 167.093 1442.51 161.717 1440.64 157.51C1438.77 153.148 1435.97 149.876 1432.23 147.694C1428.64 145.357 1424.2 144.189 1418.9 144.189C1413.3 144.189 1408.39 145.513 1404.18 148.162C1400.13 150.655 1396.94 154.238 1394.6 158.913C1392.42 163.587 1391.33 169.274 1391.33 175.974C1391.33 182.674 1392.49 188.438 1394.83 193.269C1397.32 197.943 1400.75 201.604 1405.12 204.253C1409.63 206.746 1414.93 207.993 1421.01 207.993C1426.62 207.993 1431.68 207.058 1436.2 205.188C1440.72 203.162 1444.69 200.202 1448.12 196.307L1467.75 215.939C1462.14 222.483 1455.36 227.391 1447.42 230.663C1439.47 233.935 1430.75 235.571 1421.24 235.571ZM1493.19 233V119.415H1528.95V233H1493.19ZM1528.95 170.598L1513.99 158.913C1516.95 145.669 1521.94 135.385 1528.95 128.062C1535.96 120.739 1545.7 117.078 1558.16 117.078C1563.62 117.078 1568.37 117.935 1572.42 119.649C1576.63 121.207 1580.29 123.7 1583.4 127.127L1562.14 154.005C1560.58 152.291 1558.63 150.966 1556.29 150.031C1553.96 149.097 1551.31 148.629 1548.35 148.629C1542.43 148.629 1537.67 150.499 1534.09 154.238C1530.66 157.822 1528.95 163.275 1528.95 170.598Z" fill="#1E1E1E"/>
</svg>
