<svg width="1585" height="373" viewBox="0 0 1585 373" fill="none" xmlns="http://www.w3.org/2000/svg">
<path d="M15.8926 233V67.9978H42.0686L107.041 169.196H93.7194L158.458 67.9978H184.868V233H148.175V129.932L154.719 131.568L112.417 197.475H88.1102L46.0417 131.568L52.352 129.932V233H15.8926ZM269.332 235.571C257.023 235.571 246.038 233.078 236.378 228.092C226.874 222.95 219.395 215.861 213.942 206.824C208.488 197.787 205.762 187.582 205.762 176.207C205.762 164.833 208.41 154.706 213.708 145.825C219.161 136.788 226.484 129.698 235.677 124.557C244.87 119.415 255.231 116.844 266.761 116.844C277.979 116.844 287.873 119.259 296.443 124.089C305.012 128.919 311.712 135.619 316.542 144.189C321.528 152.758 324.021 162.574 324.021 173.637C324.021 175.662 323.865 177.843 323.554 180.181C323.398 182.362 323.008 184.933 322.385 187.893L224.459 188.127V163.587L307.194 163.353L291.768 173.637C291.613 167.093 290.6 161.717 288.73 157.51C286.86 153.148 284.056 149.876 280.316 147.694C276.733 145.357 272.292 144.189 266.995 144.189C261.386 144.189 256.478 145.513 252.271 148.162C248.22 150.655 245.026 154.238 242.688 158.913C240.507 163.587 239.416 169.274 239.416 175.974C239.416 182.674 240.585 188.438 242.922 193.269C245.415 197.943 248.843 201.604 253.206 204.253C257.724 206.746 263.022 207.993 269.098 207.993C274.707 207.993 279.771 207.058 284.29 205.188C288.808 203.162 292.781 200.202 296.209 196.307L315.841 215.939C310.232 222.483 303.454 227.391 295.508 230.663C287.562 233.935 278.836 235.571 269.332 235.571ZM354.897 233V72.4384H390.655V233H354.897ZM329.188 149.798V119.415H416.364V149.798H329.188ZM432.119 233V119.415H467.877V233H432.119ZM467.877 170.598L452.92 158.913C455.88 145.669 460.866 135.385 467.877 128.062C474.889 120.739 484.627 117.078 497.092 117.078C502.545 117.078 507.297 117.935 511.348 119.649C515.555 121.207 519.217 123.7 522.333 127.127L501.065 154.005C499.507 152.291 497.559 150.966 495.222 150.031C492.885 149.097 490.236 148.629 487.276 148.629C481.355 148.629 476.603 150.499 473.019 154.238C469.591 157.822 467.877 163.275 467.877 170.598ZM531.859 233V119.415H567.617V233H531.859ZM549.855 103.756C544.245 103.756 539.571 101.886 535.832 98.1469C532.248 94.2517 530.456 89.5774 530.456 84.1241C530.456 78.5149 532.248 73.8406 535.832 70.1012C539.571 66.3618 544.245 64.4921 549.855 64.4921C555.464 64.4921 560.06 66.3618 563.644 70.1012C567.227 73.8406 569.019 78.5149 569.019 84.1241C569.019 89.5774 567.227 94.2517 563.644 98.1469C560.06 101.886 555.464 103.756 549.855 103.756ZM607.288 233V109.599C607.288 100.406 609.314 92.1483 613.365 84.8252C617.571 77.3464 623.414 71.5035 630.893 67.2966C638.372 62.934 647.253 60.7526 657.537 60.7526C665.327 60.7526 672.105 62.077 677.87 64.7258C683.79 67.2187 688.932 70.7245 693.295 75.2429L670.858 97.6795C669.3 96.1214 667.508 94.9528 665.483 94.1738C663.613 93.2389 661.354 92.7715 658.705 92.7715C653.875 92.7715 650.058 94.1738 647.253 96.9783C644.449 99.7829 643.046 103.6 643.046 108.43V233H607.288ZM582.281 149.798V119.415H675.766V149.798H582.281ZM791.917 235.571C778.361 235.571 766.676 233.39 756.86 229.027C747.199 224.508 738.318 217.731 730.216 208.694L754.055 185.089C759.353 191.165 765.195 195.917 771.584 199.345C778.128 202.617 785.684 204.253 794.254 204.253C802.044 204.253 808.043 202.851 812.25 200.046C816.613 197.242 818.794 193.346 818.794 188.361C818.794 183.842 817.392 180.181 814.587 177.376C811.782 174.571 808.043 172.156 803.369 170.131C798.85 168.105 793.786 166.158 788.177 164.288C782.724 162.418 777.271 160.315 771.817 157.978C766.364 155.485 761.3 152.447 756.626 148.863C752.107 145.123 748.446 140.527 745.641 135.074C742.837 129.465 741.434 122.453 741.434 114.039C741.434 103.912 743.85 95.1865 748.68 87.8635C753.665 80.5404 760.521 75.0092 769.246 71.2698C777.972 67.3746 788.021 65.4269 799.396 65.4269C810.925 65.4269 821.443 67.4525 830.947 71.5035C840.607 75.5545 848.553 81.0858 854.786 88.0972L830.947 111.702C825.961 106.561 820.897 102.743 815.756 100.25C810.77 97.7574 805.083 96.5109 798.694 96.5109C792.306 96.5109 787.242 97.7574 783.503 100.25C779.764 102.587 777.894 106.015 777.894 110.534C777.894 114.741 779.296 118.168 782.101 120.817C784.905 123.31 788.567 125.491 793.085 127.361C797.76 129.231 802.823 131.101 808.277 132.97C813.886 134.84 819.417 137.021 824.87 139.514C830.324 142.007 835.31 145.201 839.828 149.097C844.502 152.836 848.242 157.666 851.046 163.587C853.851 169.352 855.253 176.519 855.253 185.089C855.253 200.825 849.644 213.212 838.426 222.249C827.208 231.13 811.705 235.571 791.917 235.571ZM929.593 235.571C917.907 235.571 907.312 233 897.808 227.858C888.303 222.717 880.824 215.627 875.371 206.59C869.918 197.553 867.191 187.426 867.191 176.207C867.191 164.833 869.918 154.706 875.371 145.825C880.98 136.788 888.537 129.698 898.041 124.557C907.546 119.415 918.219 116.844 930.06 116.844C938.941 116.844 947.043 118.402 954.366 121.518C961.845 124.479 968.467 128.997 974.232 135.074L951.328 157.978C948.679 155.017 945.563 152.836 941.98 151.434C938.552 150.031 934.579 149.33 930.06 149.33C924.918 149.33 920.322 150.499 916.271 152.836C912.376 155.017 909.26 158.134 906.922 162.185C904.741 166.08 903.65 170.676 903.65 175.974C903.65 181.271 904.741 185.946 906.922 189.997C909.26 194.048 912.454 197.242 916.505 199.579C920.556 201.916 925.074 203.085 930.06 203.085C934.734 203.085 938.863 202.306 942.447 200.747C946.186 199.034 949.38 196.696 952.029 193.736L974.699 216.64C968.779 222.872 962.079 227.625 954.6 230.897C947.121 234.013 938.785 235.571 929.593 235.571ZM990.614 233V119.415H1026.37V233H990.614ZM1026.37 170.598L1011.41 158.913C1014.37 145.669 1019.36 135.385 1026.37 128.062C1033.38 120.739 1043.12 117.078 1055.59 117.078C1061.04 117.078 1065.79 117.935 1069.84 119.649C1074.05 121.207 1077.71 123.7 1080.83 127.127L1059.56 154.005C1058 152.291 1056.05 150.966 1053.72 150.031C1051.38 149.097 1048.73 148.629 1045.77 148.629C1039.85 148.629 1035.1 150.499 1031.51 154.238C1028.09 157.822 1026.37 163.275 1026.37 170.598ZM1134.6 235.337C1124.16 235.337 1114.81 232.766 1106.56 227.625C1098.45 222.483 1091.99 215.471 1087.16 206.59C1082.48 197.709 1080.15 187.582 1080.15 176.207C1080.15 164.833 1082.48 154.706 1087.16 145.825C1091.99 136.943 1098.45 129.932 1106.56 124.79C1114.81 119.649 1124.16 117.078 1134.6 117.078C1142.24 117.078 1149.09 118.558 1155.17 121.518C1161.4 124.479 1166.46 128.608 1170.36 133.905C1174.26 139.047 1176.44 144.968 1176.9 151.667V200.747C1176.44 207.447 1174.26 213.446 1170.36 218.743C1166.62 223.885 1161.63 227.936 1155.4 230.897C1149.17 233.857 1142.24 235.337 1134.6 235.337ZM1141.85 203.085C1149.48 203.085 1155.64 200.592 1160.31 195.606C1164.98 190.464 1167.32 183.998 1167.32 176.207C1167.32 170.91 1166.23 166.236 1164.05 162.185C1162.02 158.134 1159.06 155.017 1155.17 152.836C1151.43 150.499 1147.07 149.33 1142.08 149.33C1137.09 149.33 1132.65 150.499 1128.76 152.836C1125.02 155.017 1121.98 158.134 1119.64 162.185C1117.46 166.236 1116.37 170.91 1116.37 176.207C1116.37 181.349 1117.46 185.946 1119.64 189.997C1121.83 194.048 1124.86 197.242 1128.76 199.579C1132.65 201.916 1137.02 203.085 1141.85 203.085ZM1165.92 233V202.383L1171.3 174.805L1165.92 147.227V119.415H1200.98V233H1165.92ZM1291.59 235.337C1283.96 235.337 1276.95 233.857 1270.56 230.897C1264.17 227.936 1258.95 223.885 1254.9 218.743C1250.85 213.446 1248.51 207.447 1247.89 200.747V152.836C1248.51 146.136 1250.85 140.06 1254.9 134.606C1258.95 129.153 1264.17 124.868 1270.56 121.752C1276.95 118.636 1283.96 117.078 1291.59 117.078C1302.34 117.078 1311.85 119.649 1320.11 124.79C1328.52 129.932 1335.06 136.943 1339.74 145.825C1344.57 154.706 1346.98 164.833 1346.98 176.207C1346.98 187.582 1344.57 197.709 1339.74 206.59C1335.06 215.471 1328.52 222.483 1320.11 227.625C1311.85 232.766 1302.34 235.337 1291.59 235.337ZM1226.15 280.911V119.415H1261.91V148.629L1256.07 176.207L1261.44 203.786V280.911H1226.15ZM1285.05 203.085C1290.19 203.085 1294.63 201.916 1298.37 199.579C1302.27 197.242 1305.31 194.048 1307.49 189.997C1309.67 185.946 1310.76 181.349 1310.76 176.207C1310.76 170.91 1309.67 166.236 1307.49 162.185C1305.31 158.134 1302.27 155.017 1298.37 152.836C1294.63 150.499 1290.27 149.33 1285.28 149.33C1280.3 149.33 1275.86 150.499 1271.96 152.836C1268.22 155.017 1265.26 158.134 1263.08 162.185C1260.9 166.236 1259.81 170.91 1259.81 176.207C1259.81 181.349 1260.82 185.946 1262.85 189.997C1265.03 194.048 1268.07 197.242 1271.96 199.579C1275.86 201.916 1280.22 203.085 1285.05 203.085ZM1421.24 235.571C1408.93 235.571 1397.95 233.078 1388.29 228.092C1378.78 222.95 1371.3 215.861 1365.85 206.824C1360.4 197.787 1357.67 187.582 1357.67 176.207C1357.67 164.833 1360.32 154.706 1365.62 145.825C1371.07 136.788 1378.39 129.698 1387.59 124.557C1396.78 119.415 1407.14 116.844 1418.67 116.844C1429.89 116.844 1439.78 119.259 1448.35 124.089C1456.92 128.919 1463.62 135.619 1468.45 144.189C1473.44 152.758 1475.93 162.574 1475.93 173.637C1475.93 175.662 1475.77 177.843 1475.46 180.181C1475.31 182.362 1474.92 184.933 1474.29 187.893L1376.37 188.127V163.587L1459.1 163.353L1443.68 173.637C1443.52 167.093 1442.51 161.717 1440.64 157.51C1438.77 153.148 1435.97 149.876 1432.23 147.694C1428.64 145.357 1424.2 144.189 1418.9 144.189C1413.3 144.189 1408.39 145.513 1404.18 148.162C1400.13 150.655 1396.94 154.238 1394.6 158.913C1392.42 163.587 1391.33 169.274 1391.33 175.974C1391.33 182.674 1392.49 188.438 1394.83 193.269C1397.32 197.943 1400.75 201.604 1405.12 204.253C1409.63 206.746 1414.93 207.993 1421.01 207.993C1426.62 207.993 1431.68 207.058 1436.2 205.188C1440.72 203.162 1444.69 200.202 1448.12 196.307L1467.75 215.939C1462.14 222.483 1455.36 227.391 1447.42 230.663C1439.47 233.935 1430.75 235.571 1421.24 235.571ZM1493.19 233V119.415H1528.95V233H1493.19ZM1528.95 170.598L1513.99 158.913C1516.95 145.669 1521.94 135.385 1528.95 128.062C1535.96 120.739 1545.7 117.078 1558.16 117.078C1563.62 117.078 1568.37 117.935 1572.42 119.649C1576.63 121.207 1580.29 123.7 1583.4 127.127L1562.14 154.005C1560.58 152.291 1558.63 150.966 1556.29 150.031C1553.96 149.097 1551.31 148.629 1548.35 148.629C1542.43 148.629 1537.67 150.499 1534.09 154.238C1530.66 157.822 1528.95 163.275 1528.95 170.598Z" fill="#1E1E1E"/>
<path d="M49.112 357L27.1175 334.251L48.6721 313.388H56.3387L33.0874 335.76V332.492L56.9672 357H49.112ZM22.153 357V313.388H28.0601V357H22.153ZM79.5376 357.628C77.1077 357.628 74.9082 357.084 72.9392 355.995C71.0121 354.863 69.5039 353.313 68.4146 351.344C67.3254 349.375 66.7807 347.092 66.7807 344.495V327.15H72.4365V344.243C72.4365 345.877 72.7088 347.301 73.2534 348.516C73.8399 349.689 74.6778 350.59 75.7671 351.219C76.8563 351.847 78.1341 352.161 79.6004 352.161C81.8208 352.161 83.5594 351.47 84.8162 350.087C86.0731 348.663 86.7015 346.715 86.7015 344.243V327.15H92.3572V344.495C92.3572 347.092 91.8126 349.375 90.7233 351.344C89.6341 353.313 88.1259 354.863 86.1987 355.995C84.3135 357.084 82.0931 357.628 79.5376 357.628ZM107.478 357V327.15H113.134V357H107.478ZM127.651 357V338.965C127.651 336.744 126.959 335.005 125.577 333.749C124.236 332.45 122.539 331.801 120.487 331.801C119.104 331.801 117.868 332.094 116.779 332.68C115.69 333.267 114.81 334.084 114.14 335.131C113.469 336.179 113.134 337.435 113.134 338.902L110.809 337.771C110.809 335.508 111.291 333.539 112.254 331.863C113.26 330.188 114.621 328.889 116.339 327.967C118.057 327.004 119.984 326.522 122.12 326.522C124.215 326.522 126.1 326.983 127.776 327.904C129.494 328.826 130.835 330.125 131.798 331.801C132.804 333.476 133.306 335.466 133.306 337.771V357H127.651ZM147.823 357V338.965C147.823 336.744 147.131 335.005 145.749 333.749C144.408 332.45 142.732 331.801 140.722 331.801C139.339 331.801 138.082 332.094 136.951 332.68C135.862 333.267 134.982 334.084 134.312 335.131C133.641 336.179 133.306 337.435 133.306 338.902L130.101 337.771C130.227 335.466 130.835 333.497 131.924 331.863C133.055 330.188 134.5 328.889 136.26 327.967C138.019 327.004 139.947 326.522 142.041 326.522C144.22 326.522 146.168 326.983 147.885 327.904C149.603 328.826 150.965 330.125 151.97 331.801C153.018 333.476 153.541 335.487 153.541 337.833V357H147.823ZM184.489 357.628C182.226 357.628 180.174 357.168 178.33 356.246C176.529 355.282 175.083 353.963 173.994 352.287C172.905 350.611 172.297 348.705 172.172 346.568V337.582C172.297 335.403 172.905 333.497 173.994 331.863C175.125 330.188 176.592 328.889 178.393 327.967C180.236 327.004 182.268 326.522 184.489 326.522C187.212 326.522 189.663 327.213 191.841 328.596C194.062 329.978 195.8 331.842 197.057 334.189C198.314 336.535 198.942 339.174 198.942 342.107C198.942 345.039 198.314 347.679 197.057 350.025C195.8 352.371 194.062 354.235 191.841 355.617C189.663 356.958 187.212 357.628 184.489 357.628ZM168.778 369.505V327.15H174.434V335.005L173.366 342.232L174.434 349.522V369.505H168.778ZM183.546 352.287C185.431 352.287 187.086 351.847 188.511 350.967C189.935 350.087 191.066 348.893 191.904 347.385C192.742 345.835 193.161 344.055 193.161 342.044C193.161 340.075 192.742 338.315 191.904 336.765C191.066 335.215 189.935 334.021 188.511 333.183C187.086 332.303 185.452 331.863 183.609 331.863C181.724 331.863 180.069 332.303 178.644 333.183C177.22 334.021 176.11 335.215 175.314 336.765C174.518 338.315 174.12 340.096 174.12 342.107C174.12 344.076 174.497 345.835 175.251 347.385C176.047 348.893 177.157 350.087 178.582 350.967C180.048 351.847 181.703 352.287 183.546 352.287ZM224.898 357.628C222.468 357.628 220.268 357.084 218.299 355.995C216.372 354.863 214.864 353.313 213.775 351.344C212.685 349.375 212.141 347.092 212.141 344.495V327.15H217.797V344.243C217.797 345.877 218.069 347.301 218.614 348.516C219.2 349.689 220.038 350.59 221.127 351.219C222.216 351.847 223.494 352.161 224.961 352.161C227.181 352.161 228.92 351.47 230.176 350.087C231.433 348.663 232.062 346.715 232.062 344.243V327.15H237.717V344.495C237.717 347.092 237.173 349.375 236.083 351.344C234.994 353.313 233.486 354.863 231.559 355.995C229.674 357.084 227.453 357.628 224.898 357.628ZM252.839 357V312.131H258.494V357H252.839ZM293.414 357L279.463 341.73L293.288 327.15H300.138L284.742 343.238L284.993 339.97L300.704 357H293.414ZM274.31 357V312.131H279.966V357H274.31ZM324.125 357.628C321.402 357.628 318.93 356.958 316.71 355.617C314.489 354.235 312.73 352.371 311.431 350.025C310.174 347.679 309.546 345.039 309.546 342.107C309.546 339.174 310.174 336.535 311.431 334.189C312.73 331.842 314.468 329.978 316.647 328.596C318.867 327.213 321.36 326.522 324.125 326.522C326.387 326.522 328.398 327.004 330.158 327.967C331.959 328.889 333.404 330.188 334.494 331.863C335.583 333.497 336.19 335.403 336.316 337.582V346.568C336.19 348.705 335.583 350.611 334.494 352.287C333.446 353.963 332.022 355.282 330.22 356.246C328.461 357.168 326.429 357.628 324.125 357.628ZM325.067 352.287C327.874 352.287 330.137 351.344 331.854 349.459C333.572 347.532 334.431 345.081 334.431 342.107C334.431 340.054 334.033 338.273 333.237 336.765C332.483 335.215 331.393 334.021 329.969 333.183C328.545 332.303 326.89 331.863 325.005 331.863C323.119 331.863 321.444 332.303 319.977 333.183C318.553 334.063 317.422 335.278 316.584 336.828C315.788 338.336 315.39 340.075 315.39 342.044C315.39 344.055 315.788 345.835 316.584 347.385C317.422 348.893 318.574 350.087 320.04 350.967C321.506 351.847 323.182 352.287 325.067 352.287ZM334.054 357V348.956L335.122 341.667L334.054 334.44V327.15H339.772V357H334.054ZM376.662 357V339.593C376.662 337.331 375.95 335.466 374.526 334C373.101 332.534 371.258 331.801 368.996 331.801C367.487 331.801 366.147 332.136 364.974 332.806C363.801 333.476 362.879 334.398 362.209 335.571C361.538 336.744 361.203 338.085 361.203 339.593L358.878 338.273C358.878 336.011 359.381 334 360.386 332.24C361.392 330.481 362.795 329.098 364.597 328.093C366.398 327.046 368.43 326.522 370.692 326.522C372.955 326.522 374.945 327.087 376.662 328.219C378.422 329.35 379.804 330.837 380.81 332.68C381.815 334.482 382.318 336.409 382.318 338.462V357H376.662ZM355.547 357V327.15H361.203V357H355.547ZM418.129 357V327.15H423.784V357H418.129ZM423.784 339.97L421.648 339.027C421.648 335.215 422.528 332.178 424.287 329.915C426.047 327.653 428.581 326.522 431.891 326.522C433.399 326.522 434.761 326.794 435.976 327.339C437.191 327.842 438.322 328.7 439.369 329.915L435.662 333.749C435.033 333.078 434.342 332.597 433.588 332.303C432.834 332.01 431.954 331.863 430.948 331.863C428.854 331.863 427.136 332.534 425.795 333.874C424.455 335.215 423.784 337.247 423.784 339.97ZM463.735 357.628C460.761 357.628 458.08 356.958 455.692 355.617C453.304 354.235 451.418 352.371 450.036 350.025C448.653 347.679 447.962 345.018 447.962 342.044C447.962 339.111 448.633 336.472 449.973 334.126C451.356 331.78 453.199 329.936 455.503 328.596C457.849 327.213 460.468 326.522 463.358 326.522C466.123 326.522 468.553 327.15 470.648 328.407C472.785 329.664 474.439 331.403 475.612 333.623C476.827 335.843 477.435 338.357 477.435 341.164C477.435 341.583 477.414 342.044 477.372 342.546C477.33 343.007 477.246 343.552 477.121 344.18H451.921V339.467H474.104L472.03 341.29C472.03 339.279 471.674 337.582 470.962 336.199C470.25 334.775 469.245 333.686 467.946 332.932C466.647 332.136 465.076 331.738 463.233 331.738C461.306 331.738 459.609 332.157 458.143 332.995C456.676 333.832 455.545 335.005 454.749 336.514C453.953 338.022 453.555 339.802 453.555 341.855C453.555 343.95 453.974 345.793 454.812 347.385C455.65 348.935 456.844 350.15 458.394 351.03C459.944 351.868 461.724 352.287 463.735 352.287C465.411 352.287 466.94 351.994 468.323 351.407C469.747 350.821 470.962 349.941 471.968 348.768L475.612 352.475C474.188 354.151 472.428 355.429 470.334 356.309C468.281 357.189 466.081 357.628 463.735 357.628ZM500.895 357L487.195 327.15H493.48L504.477 352.35H500.832L511.892 327.15H517.925L504.225 357H500.895ZM530.351 357V327.15H536.007V357H530.351ZM533.179 321.18C532.132 321.18 531.273 320.845 530.603 320.175C529.932 319.463 529.597 318.583 529.597 317.536C529.597 316.53 529.932 315.692 530.603 315.022C531.273 314.31 532.132 313.954 533.179 313.954C534.226 313.954 535.085 314.31 535.756 315.022C536.426 315.692 536.761 316.53 536.761 317.536C536.761 318.583 536.426 319.463 535.756 320.175C535.085 320.845 534.226 321.18 533.179 321.18ZM565.708 357.628C562.733 357.628 560.052 356.958 557.664 355.617C555.276 354.235 553.391 352.371 552.009 350.025C550.626 347.679 549.935 345.018 549.935 342.044C549.935 339.111 550.605 336.472 551.946 334.126C553.328 331.78 555.172 329.936 557.476 328.596C559.822 327.213 562.44 326.522 565.331 326.522C568.096 326.522 570.526 327.15 572.621 328.407C574.757 329.664 576.412 331.403 577.585 333.623C578.8 335.843 579.407 338.357 579.407 341.164C579.407 341.583 579.386 342.044 579.345 342.546C579.303 343.007 579.219 343.552 579.093 344.18H553.894V339.467H576.077L574.003 341.29C574.003 339.279 573.647 337.582 572.935 336.199C572.223 334.775 571.217 333.686 569.918 332.932C568.62 332.136 567.049 331.738 565.205 331.738C563.278 331.738 561.581 332.157 560.115 332.995C558.649 333.832 557.518 335.005 556.722 336.514C555.926 338.022 555.528 339.802 555.528 341.855C555.528 343.95 555.947 345.793 556.784 347.385C557.622 348.935 558.816 350.15 560.366 351.03C561.917 351.868 563.697 352.287 565.708 352.287C567.384 352.287 568.913 351.994 570.295 351.407C571.72 350.821 572.935 349.941 573.94 348.768L577.585 352.475C576.161 354.151 574.401 355.429 572.306 356.309C570.253 357.189 568.054 357.628 565.708 357.628ZM601.293 357L589.479 327.15H595.386L603.933 350.402H602.047L610.531 327.15H613.799L622.282 350.402H620.397L628.944 327.15H634.851L623.099 357H619.769L611.16 334.44H613.233L604.561 357H601.293ZM664.261 370.134C662.334 370.134 660.721 369.82 659.422 369.191C658.082 368.563 656.888 367.662 655.84 366.489L659.485 362.781C660.072 363.494 660.721 364.017 661.433 364.352C662.103 364.688 662.92 364.855 663.884 364.855C665.141 364.855 666.23 364.457 667.152 363.661C668.073 362.907 668.534 361.755 668.534 360.205V327.15H674.19V360.142C674.19 362.321 673.729 364.143 672.807 365.609C671.886 367.076 670.671 368.186 669.163 368.94C667.654 369.736 666.021 370.134 664.261 370.134ZM671.425 321.18C670.419 321.18 669.582 320.845 668.911 320.175C668.241 319.463 667.906 318.583 667.906 317.536C667.906 316.53 668.241 315.692 668.911 315.022C669.582 314.31 670.419 313.954 671.425 313.954C672.472 313.954 673.331 314.31 674.001 315.022C674.672 315.692 675.007 316.53 675.007 317.536C675.007 318.583 674.672 319.463 674.001 320.175C673.331 320.845 672.472 321.18 671.425 321.18ZM702.749 357.628C700.026 357.628 697.555 356.958 695.334 355.617C693.114 354.235 691.354 352.371 690.055 350.025C688.799 347.679 688.17 345.039 688.17 342.107C688.17 339.174 688.799 336.535 690.055 334.189C691.354 331.842 693.093 329.978 695.271 328.596C697.492 327.213 699.984 326.522 702.749 326.522C705.012 326.522 707.023 327.004 708.782 327.967C710.584 328.889 712.029 330.188 713.118 331.863C714.207 333.497 714.815 335.403 714.941 337.582V346.568C714.815 348.705 714.207 350.611 713.118 352.287C712.071 353.963 710.646 355.282 708.845 356.246C707.085 357.168 705.054 357.628 702.749 357.628ZM703.692 352.287C706.499 352.287 708.761 351.344 710.479 349.459C712.197 347.532 713.055 345.081 713.055 342.107C713.055 340.054 712.657 338.273 711.861 336.765C711.107 335.215 710.018 334.021 708.594 333.183C707.169 332.303 705.514 331.863 703.629 331.863C701.744 331.863 700.068 332.303 698.602 333.183C697.177 334.063 696.046 335.278 695.208 336.828C694.412 338.336 694.014 340.075 694.014 342.044C694.014 344.055 694.412 345.835 695.208 347.385C696.046 348.893 697.198 350.087 698.665 350.967C700.131 351.847 701.807 352.287 703.692 352.287ZM712.678 357V348.956L713.747 341.667L712.678 334.44V327.15H718.397V357H712.678ZM746.803 357.628C744.038 357.628 741.566 356.958 739.388 355.617C737.209 354.235 735.471 352.371 734.172 350.025C732.915 347.679 732.287 345.039 732.287 342.107C732.287 339.174 732.915 336.535 734.172 334.189C735.471 331.842 737.209 329.978 739.388 328.596C741.566 327.213 744.038 326.522 746.803 326.522C749.024 326.522 751.035 327.004 752.836 327.967C754.637 328.889 756.083 330.188 757.172 331.863C758.303 333.497 758.932 335.403 759.057 337.582V346.568C758.932 348.705 758.324 350.611 757.235 352.287C756.146 353.963 754.7 355.282 752.899 356.246C751.097 357.168 749.066 357.628 746.803 357.628ZM747.746 352.287C749.631 352.287 751.265 351.847 752.648 350.967C754.072 350.087 755.182 348.893 755.978 347.385C756.774 345.835 757.172 344.076 757.172 342.107C757.172 340.054 756.753 338.273 755.915 336.765C755.119 335.257 754.009 334.063 752.585 333.183C751.202 332.303 749.568 331.863 747.683 331.863C745.798 331.863 744.143 332.303 742.719 333.183C741.294 334.063 740.163 335.278 739.325 336.828C738.529 338.336 738.131 340.075 738.131 342.044C738.131 344.055 738.529 345.835 739.325 347.385C740.163 348.893 741.294 350.087 742.719 350.967C744.185 351.847 745.861 352.287 747.746 352.287ZM762.514 357H756.795V348.956L757.863 341.667L756.795 334.44V312.131H762.514V357ZM778.352 357V327.15H784.007V357H778.352ZM781.179 321.18C780.132 321.18 779.273 320.845 778.603 320.175C777.933 319.463 777.598 318.583 777.598 317.536C777.598 316.53 777.933 315.692 778.603 315.022C779.273 314.31 780.132 313.954 781.179 313.954C782.227 313.954 783.086 314.31 783.756 315.022C784.426 315.692 784.761 316.53 784.761 317.536C784.761 318.583 784.426 319.463 783.756 320.175C783.086 320.845 782.227 321.18 781.179 321.18ZM833.127 357.628C830.362 357.628 827.89 356.958 825.711 355.617C823.533 354.235 821.794 352.371 820.496 350.025C819.239 347.679 818.61 345.039 818.61 342.107C818.61 339.174 819.239 336.535 820.496 334.189C821.794 331.842 823.533 329.978 825.711 328.596C827.89 327.213 830.362 326.522 833.127 326.522C835.347 326.522 837.358 327.004 839.16 327.967C840.961 328.889 842.406 330.188 843.496 331.863C844.627 333.497 845.255 335.403 845.381 337.582V346.568C845.255 348.705 844.648 350.611 843.558 352.287C842.469 353.963 841.024 355.282 839.222 356.246C837.421 357.168 835.389 357.628 833.127 357.628ZM834.069 352.287C835.955 352.287 837.588 351.847 838.971 350.967C840.395 350.087 841.506 348.893 842.302 347.385C843.098 345.835 843.496 344.076 843.496 342.107C843.496 340.054 843.077 338.273 842.239 336.765C841.443 335.257 840.333 334.063 838.908 333.183C837.526 332.303 835.892 331.863 834.007 331.863C832.121 331.863 830.466 332.303 829.042 333.183C827.618 334.063 826.487 335.278 825.649 336.828C824.853 338.336 824.455 340.075 824.455 342.044C824.455 344.055 824.853 345.835 825.649 347.385C826.487 348.893 827.618 350.087 829.042 350.967C830.508 351.847 832.184 352.287 834.069 352.287ZM848.837 357H843.119V348.956L844.187 341.667L843.119 334.44V312.131H848.837V357ZM877.306 357.628C874.583 357.628 872.111 356.958 869.891 355.617C867.671 354.235 865.911 352.371 864.612 350.025C863.355 347.679 862.727 345.039 862.727 342.107C862.727 339.174 863.355 336.535 864.612 334.189C865.911 331.842 867.65 329.978 869.828 328.596C872.049 327.213 874.541 326.522 877.306 326.522C879.569 326.522 881.58 327.004 883.339 327.967C885.141 328.889 886.586 330.188 887.675 331.863C888.764 333.497 889.372 335.403 889.498 337.582V346.568C889.372 348.705 888.764 350.611 887.675 352.287C886.628 353.963 885.203 355.282 883.402 356.246C881.642 357.168 879.61 357.628 877.306 357.628ZM878.249 352.287C881.056 352.287 883.318 351.344 885.036 349.459C886.753 347.532 887.612 345.081 887.612 342.107C887.612 340.054 887.214 338.273 886.418 336.765C885.664 335.215 884.575 334.021 883.151 333.183C881.726 332.303 880.071 331.863 878.186 331.863C876.301 331.863 874.625 332.303 873.159 333.183C871.734 334.063 870.603 335.278 869.765 336.828C868.969 338.336 868.571 340.075 868.571 342.044C868.571 344.055 868.969 345.835 869.765 347.385C870.603 348.893 871.755 350.087 873.222 350.967C874.688 351.847 876.364 352.287 878.249 352.287ZM887.235 357V348.956L888.304 341.667L887.235 334.44V327.15H892.954V357H887.235ZM913.194 357V314.645H918.849V357H913.194ZM905.841 332.303V327.15H926.202V332.303H905.841ZM951.057 357.628C948.333 357.628 945.862 356.958 943.641 355.617C941.421 354.235 939.661 352.371 938.363 350.025C937.106 347.679 936.477 345.039 936.477 342.107C936.477 339.174 937.106 336.535 938.363 334.189C939.661 331.842 941.4 329.978 943.578 328.596C945.799 327.213 948.292 326.522 951.057 326.522C953.319 326.522 955.33 327.004 957.089 327.967C958.891 328.889 960.336 330.188 961.425 331.863C962.515 333.497 963.122 335.403 963.248 337.582V346.568C963.122 348.705 962.515 350.611 961.425 352.287C960.378 353.963 958.954 355.282 957.152 356.246C955.393 357.168 953.361 357.628 951.057 357.628ZM951.999 352.287C954.806 352.287 957.068 351.344 958.786 349.459C960.504 347.532 961.363 345.081 961.363 342.107C961.363 340.054 960.965 338.273 960.169 336.765C959.415 335.215 958.325 334.021 956.901 333.183C955.476 332.303 953.822 331.863 951.936 331.863C950.051 331.863 948.375 332.303 946.909 333.183C945.485 334.063 944.354 335.278 943.516 336.828C942.72 338.336 942.322 340.075 942.322 342.044C942.322 344.055 942.72 345.835 943.516 347.385C944.354 348.893 945.506 350.087 946.972 350.967C948.438 351.847 950.114 352.287 951.999 352.287ZM960.986 357V348.956L962.054 341.667L960.986 334.44V327.15H966.704V357H960.986ZM991.968 357.628C990.293 357.628 988.701 357.419 987.192 357C985.726 356.539 984.365 355.911 983.108 355.115C981.851 354.277 980.762 353.292 979.84 352.161L983.485 348.516C984.574 349.857 985.831 350.862 987.255 351.533C988.68 352.161 990.272 352.475 992.031 352.475C993.791 352.475 995.152 352.182 996.116 351.596C997.079 350.967 997.561 350.108 997.561 349.019C997.561 347.93 997.163 347.092 996.367 346.505C995.613 345.877 994.629 345.374 993.414 344.997C992.199 344.578 990.9 344.18 989.518 343.803C988.177 343.384 986.899 342.861 985.684 342.232C984.469 341.604 983.464 340.745 982.668 339.656C981.914 338.567 981.537 337.121 981.537 335.32C981.537 333.518 981.977 331.968 982.856 330.669C983.736 329.329 984.951 328.302 986.501 327.59C988.093 326.878 989.999 326.522 992.22 326.522C994.566 326.522 996.64 326.941 998.441 327.779C1000.28 328.575 1001.79 329.79 1002.97 331.424L999.321 335.068C998.483 333.979 997.436 333.141 996.179 332.555C994.964 331.968 993.581 331.675 992.031 331.675C990.397 331.675 989.14 331.968 988.261 332.555C987.423 333.099 987.004 333.874 987.004 334.88C987.004 335.885 987.381 336.66 988.135 337.205C988.889 337.75 989.874 338.21 991.089 338.587C992.345 338.965 993.644 339.363 994.985 339.781C996.325 340.158 997.603 340.682 998.818 341.352C1000.03 342.023 1001.02 342.924 1001.77 344.055C1002.57 345.186 1002.97 346.673 1002.97 348.516C1002.97 351.323 1001.96 353.544 999.949 355.178C997.98 356.811 995.32 357.628 991.968 357.628ZM1030.66 357.628C1027.69 357.628 1025.01 356.958 1022.62 355.617C1020.23 354.235 1018.35 352.371 1016.96 350.025C1015.58 347.679 1014.89 345.018 1014.89 342.044C1014.89 339.111 1015.56 336.472 1016.9 334.126C1018.28 331.78 1020.13 329.936 1022.43 328.596C1024.78 327.213 1027.4 326.522 1030.29 326.522C1033.05 326.522 1035.48 327.15 1037.58 328.407C1039.71 329.664 1041.37 331.403 1042.54 333.623C1043.76 335.843 1044.36 338.357 1044.36 341.164C1044.36 341.583 1044.34 342.044 1044.3 342.546C1044.26 343.007 1044.17 343.552 1044.05 344.18H1018.85V339.467H1041.03L1038.96 341.29C1038.96 339.279 1038.6 337.582 1037.89 336.199C1037.18 334.775 1036.17 333.686 1034.87 332.932C1033.58 332.136 1032 331.738 1030.16 331.738C1028.23 331.738 1026.54 332.157 1025.07 332.995C1023.6 333.832 1022.47 335.005 1021.68 336.514C1020.88 338.022 1020.48 339.802 1020.48 341.855C1020.48 343.95 1020.9 345.793 1021.74 347.385C1022.58 348.935 1023.77 350.15 1025.32 351.03C1026.87 351.868 1028.65 352.287 1030.66 352.287C1032.34 352.287 1033.87 351.994 1035.25 351.407C1036.68 350.821 1037.89 349.941 1038.9 348.768L1042.54 352.475C1041.12 354.151 1039.36 355.429 1037.26 356.309C1035.21 357.189 1033.01 357.628 1030.66 357.628ZM1061.74 357V314.645H1067.39V357H1061.74ZM1054.39 332.303V327.15H1074.75V332.303H1054.39ZM1117.93 357.628C1116.25 357.628 1114.66 357.419 1113.15 357C1111.69 356.539 1110.32 355.911 1109.07 355.115C1107.81 354.277 1106.72 353.292 1105.8 352.161L1109.44 348.516C1110.53 349.857 1111.79 350.862 1113.22 351.533C1114.64 352.161 1116.23 352.475 1117.99 352.475C1119.75 352.475 1121.11 352.182 1122.08 351.596C1123.04 350.967 1123.52 350.108 1123.52 349.019C1123.52 347.93 1123.12 347.092 1122.33 346.505C1121.57 345.877 1120.59 345.374 1119.37 344.997C1118.16 344.578 1116.86 344.18 1115.48 343.803C1114.14 343.384 1112.86 342.861 1111.64 342.232C1110.43 341.604 1109.42 340.745 1108.63 339.656C1107.87 338.567 1107.5 337.121 1107.5 335.32C1107.5 333.518 1107.94 331.968 1108.82 330.669C1109.7 329.329 1110.91 328.302 1112.46 327.59C1114.05 326.878 1115.96 326.522 1118.18 326.522C1120.53 326.522 1122.6 326.941 1124.4 327.779C1126.24 328.575 1127.75 329.79 1128.93 331.424L1125.28 335.068C1124.44 333.979 1123.4 333.141 1122.14 332.555C1120.92 331.968 1119.54 331.675 1117.99 331.675C1116.36 331.675 1115.1 331.968 1114.22 332.555C1113.38 333.099 1112.96 333.874 1112.96 334.88C1112.96 335.885 1113.34 336.66 1114.1 337.205C1114.85 337.75 1115.83 338.21 1117.05 338.587C1118.31 338.965 1119.6 339.363 1120.94 339.781C1122.29 340.158 1123.56 340.682 1124.78 341.352C1125.99 342.023 1126.98 342.924 1127.73 344.055C1128.53 345.186 1128.93 346.673 1128.93 348.516C1128.93 351.323 1127.92 353.544 1125.91 355.178C1123.94 356.811 1121.28 357.628 1117.93 357.628ZM1142.86 357V327.15H1148.52V357H1142.86ZM1145.69 321.18C1144.64 321.18 1143.78 320.845 1143.11 320.175C1142.44 319.463 1142.11 318.583 1142.11 317.536C1142.11 316.53 1142.44 315.692 1143.11 315.022C1143.78 314.31 1144.64 313.954 1145.69 313.954C1146.74 313.954 1147.6 314.31 1148.27 315.022C1148.94 315.692 1149.27 316.53 1149.27 317.536C1149.27 318.583 1148.94 319.463 1148.27 320.175C1147.6 320.845 1146.74 321.18 1145.69 321.18ZM1177.09 357.628C1174.36 357.628 1171.89 356.958 1169.67 355.617C1167.45 354.235 1165.69 352.371 1164.39 350.025C1163.14 347.679 1162.51 345.039 1162.51 342.107C1162.51 339.174 1163.14 336.535 1164.39 334.189C1165.69 331.842 1167.43 329.978 1169.61 328.596C1171.83 327.213 1174.32 326.522 1177.09 326.522C1179.35 326.522 1181.36 327.004 1183.12 327.967C1184.92 328.889 1186.37 330.188 1187.46 331.863C1188.55 333.497 1189.15 335.403 1189.28 337.582V346.568C1189.15 348.705 1188.55 350.611 1187.46 352.287C1186.41 353.963 1184.98 355.282 1183.18 356.246C1181.42 357.168 1179.39 357.628 1177.09 357.628ZM1178.03 352.287C1180.84 352.287 1183.1 351.344 1184.82 349.459C1186.53 347.532 1187.39 345.081 1187.39 342.107C1187.39 340.054 1186.99 338.273 1186.2 336.765C1185.44 335.215 1184.36 334.021 1182.93 333.183C1181.51 332.303 1179.85 331.863 1177.97 331.863C1176.08 331.863 1174.41 332.303 1172.94 333.183C1171.52 334.063 1170.38 335.278 1169.55 336.828C1168.75 338.336 1168.35 340.075 1168.35 342.044C1168.35 344.055 1168.75 345.835 1169.55 347.385C1170.38 348.893 1171.54 350.087 1173 350.967C1174.47 351.847 1176.14 352.287 1178.03 352.287ZM1187.02 357V348.956L1188.08 341.667L1187.02 334.44V327.15H1192.73V357H1187.02ZM1224.22 357.628C1221.96 357.628 1219.9 357.168 1218.06 356.246C1216.26 355.282 1214.81 353.963 1213.73 352.287C1212.64 350.611 1212.03 348.705 1211.9 346.568V337.582C1212.03 335.403 1212.64 333.497 1213.73 331.863C1214.86 330.188 1216.32 328.889 1218.12 327.967C1219.97 327.004 1222 326.522 1224.22 326.522C1226.94 326.522 1229.39 327.213 1231.57 328.596C1233.79 329.978 1235.53 331.842 1236.79 334.189C1238.05 336.535 1238.67 339.174 1238.67 342.107C1238.67 345.039 1238.05 347.679 1236.79 350.025C1235.53 352.371 1233.79 354.235 1231.57 355.617C1229.39 356.958 1226.94 357.628 1224.22 357.628ZM1208.51 369.505V327.15H1214.17V335.005L1213.1 342.232L1214.17 349.522V369.505H1208.51ZM1223.28 352.287C1225.16 352.287 1226.82 351.847 1228.24 350.967C1229.67 350.087 1230.8 348.893 1231.64 347.385C1232.47 345.835 1232.89 344.055 1232.89 342.044C1232.89 340.075 1232.47 338.315 1231.64 336.765C1230.8 335.215 1229.67 334.021 1228.24 333.183C1226.82 332.303 1225.18 331.863 1223.34 331.863C1221.45 331.863 1219.8 332.303 1218.38 333.183C1216.95 334.021 1215.84 335.215 1215.05 336.765C1214.25 338.315 1213.85 340.096 1213.85 342.107C1213.85 344.076 1214.23 345.835 1214.98 347.385C1215.78 348.893 1216.89 350.087 1218.31 350.967C1219.78 351.847 1221.43 352.287 1223.28 352.287ZM1285.93 357.628C1283.21 357.628 1280.74 356.958 1278.52 355.617C1276.3 354.235 1274.54 352.371 1273.24 350.025C1271.98 347.679 1271.35 345.039 1271.35 342.107C1271.35 339.174 1271.98 336.535 1273.24 334.189C1274.54 331.842 1276.28 329.978 1278.45 328.596C1280.68 327.213 1283.17 326.522 1285.93 326.522C1288.2 326.522 1290.21 327.004 1291.97 327.967C1293.77 328.889 1295.21 330.188 1296.3 331.863C1297.39 333.497 1298 335.403 1298.12 337.582V346.568C1298 348.705 1297.39 350.611 1296.3 352.287C1295.25 353.963 1293.83 355.282 1292.03 356.246C1290.27 357.168 1288.24 357.628 1285.93 357.628ZM1286.88 352.287C1289.68 352.287 1291.94 351.344 1293.66 349.459C1295.38 347.532 1296.24 345.081 1296.24 342.107C1296.24 340.054 1295.84 338.273 1295.04 336.765C1294.29 335.215 1293.2 334.021 1291.78 333.183C1290.35 332.303 1288.7 331.863 1286.81 331.863C1284.93 331.863 1283.25 332.303 1281.79 333.183C1280.36 334.063 1279.23 335.278 1278.39 336.828C1277.6 338.336 1277.2 340.075 1277.2 342.044C1277.2 344.055 1277.6 345.835 1278.39 347.385C1279.23 348.893 1280.38 350.087 1281.85 350.967C1283.31 351.847 1284.99 352.287 1286.88 352.287ZM1295.86 357V348.956L1296.93 341.667L1295.86 334.44V327.15H1301.58V357H1295.86ZM1338.47 357V339.593C1338.47 337.331 1337.76 335.466 1336.33 334C1334.91 332.534 1333.07 331.801 1330.8 331.801C1329.3 331.801 1327.95 332.136 1326.78 332.806C1325.61 333.476 1324.69 334.398 1324.02 335.571C1323.35 336.744 1323.01 338.085 1323.01 339.593L1320.69 338.273C1320.69 336.011 1321.19 334 1322.19 332.24C1323.2 330.481 1324.6 329.098 1326.4 328.093C1328.21 327.046 1330.24 326.522 1332.5 326.522C1334.76 326.522 1336.75 327.087 1338.47 328.219C1340.23 329.35 1341.61 330.837 1342.62 332.68C1343.62 334.482 1344.13 336.409 1344.13 338.462V357H1338.47ZM1317.36 357V327.15H1323.01V357H1317.36ZM1372.02 357.628C1369.3 357.628 1366.82 356.958 1364.6 355.617C1362.38 354.235 1360.62 352.371 1359.32 350.025C1358.07 347.679 1357.44 345.039 1357.44 342.107C1357.44 339.174 1358.07 336.535 1359.32 334.189C1360.62 331.842 1362.36 329.978 1364.54 328.596C1366.76 327.213 1369.25 326.522 1372.02 326.522C1374.28 326.522 1376.29 327.004 1378.05 327.967C1379.85 328.889 1381.3 330.188 1382.39 331.863C1383.48 333.497 1384.08 335.403 1384.21 337.582V346.568C1384.08 348.705 1383.48 350.611 1382.39 352.287C1381.34 353.963 1379.92 355.282 1378.11 356.246C1376.35 357.168 1374.32 357.628 1372.02 357.628ZM1372.96 352.287C1375.77 352.287 1378.03 351.344 1379.75 349.459C1381.47 347.532 1382.32 345.081 1382.32 342.107C1382.32 340.054 1381.93 338.273 1381.13 336.765C1380.38 335.215 1379.29 334.021 1377.86 333.183C1376.44 332.303 1374.78 331.863 1372.9 331.863C1371.01 331.863 1369.34 332.303 1367.87 333.183C1366.45 334.063 1365.32 335.278 1364.48 336.828C1363.68 338.336 1363.28 340.075 1363.28 342.044C1363.28 344.055 1363.68 345.835 1364.48 347.385C1365.32 348.893 1366.47 350.087 1367.93 350.967C1369.4 351.847 1371.08 352.287 1372.96 352.287ZM1381.95 357V348.956L1383.02 341.667L1381.95 334.44V327.15H1387.67V357H1381.95ZM1403.44 357V312.131H1409.1V357H1403.44ZM1424.98 357V327.15H1430.63V357H1424.98ZM1427.8 321.18C1426.76 321.18 1425.9 320.845 1425.23 320.175C1424.56 319.463 1424.22 318.583 1424.22 317.536C1424.22 316.53 1424.56 315.692 1425.23 315.022C1425.9 314.31 1426.76 313.954 1427.8 313.954C1428.85 313.954 1429.71 314.31 1430.38 315.022C1431.05 315.692 1431.39 316.53 1431.39 317.536C1431.39 318.583 1431.05 319.463 1430.38 320.175C1429.71 320.845 1428.85 321.18 1427.8 321.18ZM1456 357.628C1454.32 357.628 1452.73 357.419 1451.22 357C1449.75 356.539 1448.39 355.911 1447.14 355.115C1445.88 354.277 1444.79 353.292 1443.87 352.161L1447.51 348.516C1448.6 349.857 1449.86 350.862 1451.28 351.533C1452.71 352.161 1454.3 352.475 1456.06 352.475C1457.82 352.475 1459.18 352.182 1460.14 351.596C1461.11 350.967 1461.59 350.108 1461.59 349.019C1461.59 347.93 1461.19 347.092 1460.39 346.505C1459.64 345.877 1458.66 345.374 1457.44 344.997C1456.23 344.578 1454.93 344.18 1453.55 343.803C1452.2 343.384 1450.93 342.861 1449.71 342.232C1448.5 341.604 1447.49 340.745 1446.7 339.656C1445.94 338.567 1445.56 337.121 1445.56 335.32C1445.56 333.518 1446 331.968 1446.88 330.669C1447.76 329.329 1448.98 328.302 1450.53 327.59C1452.12 326.878 1454.03 326.522 1456.25 326.522C1458.59 326.522 1460.67 326.941 1462.47 327.779C1464.31 328.575 1465.82 329.79 1466.99 331.424L1463.35 335.068C1462.51 333.979 1461.46 333.141 1460.21 332.555C1458.99 331.968 1457.61 331.675 1456.06 331.675C1454.42 331.675 1453.17 331.968 1452.29 332.555C1451.45 333.099 1451.03 333.874 1451.03 334.88C1451.03 335.885 1451.41 336.66 1452.16 337.205C1452.92 337.75 1453.9 338.21 1455.12 338.587C1456.37 338.965 1457.67 339.363 1459.01 339.781C1460.35 340.158 1461.63 340.682 1462.85 341.352C1464.06 342.023 1465.05 342.924 1465.8 344.055C1466.6 345.186 1466.99 346.673 1466.99 348.516C1466.99 351.323 1465.99 353.544 1463.98 355.178C1462.01 356.811 1459.35 357.628 1456 357.628ZM1480.93 357V327.15H1486.58V357H1480.93ZM1483.76 321.18C1482.71 321.18 1481.85 320.845 1481.18 320.175C1480.51 319.463 1480.17 318.583 1480.17 317.536C1480.17 316.53 1480.51 315.692 1481.18 315.022C1481.85 314.31 1482.71 313.954 1483.76 313.954C1484.8 313.954 1485.66 314.31 1486.33 315.022C1487 315.692 1487.34 316.53 1487.34 317.536C1487.34 318.583 1487 319.463 1486.33 320.175C1485.66 320.845 1484.8 321.18 1483.76 321.18ZM1511.95 357.628C1510.27 357.628 1508.68 357.419 1507.17 357C1505.71 356.539 1504.35 355.911 1503.09 355.115C1501.83 354.277 1500.74 353.292 1499.82 352.161L1503.47 348.516C1504.55 349.857 1505.81 350.862 1507.24 351.533C1508.66 352.161 1510.25 352.475 1512.01 352.475C1513.77 352.475 1515.13 352.182 1516.1 351.596C1517.06 350.967 1517.54 350.108 1517.54 349.019C1517.54 347.93 1517.14 347.092 1516.35 346.505C1515.59 345.877 1514.61 345.374 1513.39 344.997C1512.18 344.578 1510.88 344.18 1509.5 343.803C1508.16 343.384 1506.88 342.861 1505.67 342.232C1504.45 341.604 1503.44 340.745 1502.65 339.656C1501.89 338.567 1501.52 337.121 1501.52 335.32C1501.52 333.518 1501.96 331.968 1502.84 330.669C1503.72 329.329 1504.93 328.302 1506.48 327.59C1508.07 326.878 1509.98 326.522 1512.2 326.522C1514.55 326.522 1516.62 326.941 1518.42 327.779C1520.27 328.575 1521.77 329.79 1522.95 331.424L1519.3 335.068C1518.46 333.979 1517.42 333.141 1516.16 332.555C1514.94 331.968 1513.56 331.675 1512.01 331.675C1510.38 331.675 1509.12 331.968 1508.24 332.555C1507.4 333.099 1506.98 333.874 1506.98 334.88C1506.98 335.885 1507.36 336.66 1508.12 337.205C1508.87 337.75 1509.85 338.21 1511.07 338.587C1512.33 338.965 1513.63 339.363 1514.97 339.781C1516.31 340.158 1517.58 340.682 1518.8 341.352C1520.01 342.023 1521 342.924 1521.75 344.055C1522.55 345.186 1522.95 346.673 1522.95 348.516C1522.95 351.323 1521.94 353.544 1519.93 355.178C1517.96 356.811 1515.3 357.628 1511.95 357.628ZM1541.78 357.628C1540.61 357.628 1539.63 357.23 1538.83 356.434C1538.08 355.597 1537.7 354.612 1537.7 353.481C1537.7 352.308 1538.08 351.344 1538.83 350.59C1539.63 349.794 1540.61 349.396 1541.78 349.396C1542.96 349.396 1543.92 349.794 1544.67 350.59C1545.47 351.344 1545.87 352.308 1545.87 353.481C1545.87 354.612 1545.47 355.597 1544.67 356.434C1543.92 357.23 1542.96 357.628 1541.78 357.628Z" fill="#1E1E1E"/>
</svg>
