<svg width="422" height="463" viewBox="0 0 422 463" fill="none" xmlns="http://www.w3.org/2000/svg">
<path d="M410.364 316.176C402.06 351.47 393.155 381.789 332.261 421.61C269.519 462.641 156.59 470.481 89.7614 421.61C22.9329 372.739 7.76141 226.11 7.76141 226.11H89.7614C82.2617 211.106 4.76169 78.1029 119.762 40.6037C234.762 3.10455 314.871 -2.30525 338.55 20.8554C384.55 65.8516 411.249 225.935 411.261 226.11C411.261 226.11 418.668 280.881 410.364 316.176Z" fill="#3BE6A6"/>
<path d="M89.7614 226.11H7.76141C7.76141 226.11 22.9329 372.739 89.7614 421.61C156.59 470.481 269.519 462.641 332.261 421.61C393.155 381.789 402.06 351.47 410.364 316.176C418.668 280.881 411.261 226.11 411.261 226.11C411.249 225.935 384.55 65.8516 338.55 20.8554C314.871 -2.30525 234.762 3.10455 119.762 40.6037C4.76169 78.1029 82.2617 211.106 89.7614 226.11ZM89.7614 421.61C89.7614 421.61 139.262 440.607 155.262 407.107C171.262 373.607 89.7614 226.11 89.7614 226.11" stroke="#1E1E1E" stroke-width="14"/>
<path d="M260.556 376.9L236.597 411.443M261.777 377.771C246.575 367.226 242.799 346.354 253.343 331.151C263.888 315.949 284.76 312.173 299.963 322.717C315.165 333.262 318.941 354.134 308.397 369.337C297.852 384.539 276.98 388.315 261.777 377.771Z" stroke="#1E1E1E" stroke-width="14" stroke-linecap="round"/>
<line x1="300.292" y1="90.58" x2="183.572" y2="112.988" stroke="#1E1E1E" stroke-width="14" stroke-linecap="round"/>
<line x1="317.362" y1="137.998" x2="151.552" y2="169.568" stroke="#1E1E1E" stroke-width="14" stroke-linecap="round"/>
<line x1="330.198" y1="179.136" x2="164.388" y2="210.706" stroke="#1E1E1E" stroke-width="14" stroke-linecap="round"/>
<line x1="349.299" y1="222.81" x2="183.488" y2="254.38" stroke="#1E1E1E" stroke-width="14" stroke-linecap="round"/>
<line x1="300.797" y1="276.852" x2="197.53" y2="297.319" stroke="#1E1E1E" stroke-width="14" stroke-linecap="round"/>
<path d="M60.5162 273.41C56.6717 273.817 53.8847 277.263 54.2913 281.108C54.6979 284.952 58.1442 287.739 61.9887 287.333L61.2525 280.371L60.5162 273.41ZM117.848 274.386L117.111 267.425L60.5162 273.41L61.2525 280.371L61.9887 287.333L118.584 281.347L117.848 274.386Z" fill="#1E1E1E"/>
<path d="M73.9494 319.726C70.1247 320.289 67.4811 323.847 68.0446 327.671C68.6082 331.496 72.1656 334.14 75.9903 333.576L74.9699 326.651L73.9494 319.726ZM137.847 317.386L136.826 310.461L73.9494 319.726L74.9699 326.651L75.9903 333.576L138.867 324.311L137.847 317.386Z" fill="#1E1E1E"/>
<path d="M114.556 363.436C110.732 364.004 108.092 367.564 108.659 371.388C109.227 375.212 112.787 377.852 116.611 377.285L115.583 370.361L114.556 363.436ZM155.847 364.385L154.819 357.461L114.556 363.436L115.583 370.361L116.611 377.285L156.874 371.309L155.847 364.385Z" fill="#1E1E1E"/>
<path d="M139.531 397.625C144.531 378.125 67.5312 228.125 67.5312 228.125H93.0312L127.531 297.125L150.531 351.625L158.531 379.625L160.531 404.125L150.531 417.125L137.031 422.625L118.031 425.625C118.031 425.625 134.531 417.125 139.531 397.625Z" fill="#1E1E1E" fill-opacity="0.46"/>
</svg>
